<mxfile host="Electron" agent="Mozilla/5.0 (X11; Linux x86_64) AppleWebKit/537.36 (KHTML, like Gecko) draw.io/26.0.9 Chrome/128.0.6613.186 Electron/32.3.0 Safari/537.36" version="26.0.9" pages="8">
  <diagram name="1" id="raGk_D8FTLXwgUmbc4jt">
    <mxGraphModel dx="454" dy="703" grid="1" gridSize="10" guides="1" tooltips="1" connect="1" arrows="1" fold="1" page="1" pageScale="1" pageWidth="280" pageHeight="260" math="0" shadow="0">
      <root>
        <mxCell id="0" />
        <mxCell id="1" parent="0" />
        <mxCell id="jTd84X1G22GfpIwI3Wmg-1" style="edgeStyle=orthogonalEdgeStyle;rounded=0;orthogonalLoop=1;jettySize=auto;html=1;exitX=1;exitY=0.5;exitDx=0;exitDy=0;entryX=0;entryY=0.5;entryDx=0;entryDy=0;fillColor=#f5f5f5;strokeColor=#666666;strokeWidth=2;" parent="1" source="zCmTgFsGxIaxcytd8qIg-1" target="zCmTgFsGxIaxcytd8qIg-2" edge="1">
          <mxGeometry relative="1" as="geometry" />
        </mxCell>
        <mxCell id="9O1mxxfFyx1soMVcyxZJ-19" style="edgeStyle=orthogonalEdgeStyle;rounded=0;orthogonalLoop=1;jettySize=auto;html=1;exitX=0.5;exitY=0;exitDx=0;exitDy=0;entryX=0.5;entryY=0;entryDx=0;entryDy=0;fillColor=#d5e8d4;strokeColor=#82b366;" parent="1" source="zCmTgFsGxIaxcytd8qIg-1" target="9O1mxxfFyx1soMVcyxZJ-17" edge="1">
          <mxGeometry relative="1" as="geometry">
            <Array as="points">
              <mxPoint x="80" y="40" />
              <mxPoint x="240" y="40" />
              <mxPoint x="240" y="140" />
              <mxPoint x="80" y="140" />
            </Array>
          </mxGeometry>
        </mxCell>
        <mxCell id="zCmTgFsGxIaxcytd8qIg-1" value="1" style="text;html=1;align=center;verticalAlign=middle;whiteSpace=wrap;rounded=0;fillColor=#d5e8d4;strokeColor=#82b366;fontSize=14;fontColor=#333333;" parent="1" vertex="1">
          <mxGeometry x="60" y="60" width="40" height="20" as="geometry" />
        </mxCell>
        <mxCell id="jTd84X1G22GfpIwI3Wmg-2" style="edgeStyle=orthogonalEdgeStyle;rounded=0;orthogonalLoop=1;jettySize=auto;html=1;exitX=1;exitY=0.5;exitDx=0;exitDy=0;entryX=0;entryY=0.5;entryDx=0;entryDy=0;fillColor=#f5f5f5;strokeColor=#666666;strokeWidth=2;" parent="1" source="zCmTgFsGxIaxcytd8qIg-2" target="zCmTgFsGxIaxcytd8qIg-3" edge="1">
          <mxGeometry relative="1" as="geometry">
            <mxPoint x="200" y="80" as="sourcePoint" />
          </mxGeometry>
        </mxCell>
        <mxCell id="zCmTgFsGxIaxcytd8qIg-2" value="4" style="text;html=1;align=center;verticalAlign=middle;whiteSpace=wrap;rounded=0;fillColor=#f5f5f5;strokeColor=#666666;fontSize=14;fontColor=#333333;" parent="1" vertex="1">
          <mxGeometry x="120" y="60" width="40" height="20" as="geometry" />
        </mxCell>
        <mxCell id="zCmTgFsGxIaxcytd8qIg-3" value="5" style="text;html=1;align=center;verticalAlign=middle;whiteSpace=wrap;rounded=0;fillColor=#f5f5f5;strokeColor=#666666;fontSize=14;fontColor=#333333;" parent="1" vertex="1">
          <mxGeometry x="180" y="60" width="40" height="20" as="geometry" />
        </mxCell>
        <mxCell id="AQBsLTuEEX6UYwU5JBV7-1" value="lists" style="text;html=1;align=center;verticalAlign=middle;whiteSpace=wrap;rounded=0;fontSize=10;" parent="1" vertex="1">
          <mxGeometry x="60" y="120" width="160" height="20" as="geometry" />
        </mxCell>
        <mxCell id="9O1mxxfFyx1soMVcyxZJ-1" style="edgeStyle=orthogonalEdgeStyle;rounded=0;orthogonalLoop=1;jettySize=auto;html=1;exitX=1;exitY=0.5;exitDx=0;exitDy=0;entryX=0;entryY=0.5;entryDx=0;entryDy=0;fillColor=#f5f5f5;strokeColor=#666666;strokeWidth=2;" parent="1" source="9O1mxxfFyx1soMVcyxZJ-2" target="9O1mxxfFyx1soMVcyxZJ-4" edge="1">
          <mxGeometry relative="1" as="geometry" />
        </mxCell>
        <mxCell id="9O1mxxfFyx1soMVcyxZJ-2" value="1" style="text;html=1;align=center;verticalAlign=middle;whiteSpace=wrap;rounded=0;fillColor=#dae8fc;strokeColor=#6c8ebf;fontSize=14;fontColor=#333333;" parent="1" vertex="1">
          <mxGeometry x="60" y="80" width="40" height="20" as="geometry" />
        </mxCell>
        <mxCell id="9O1mxxfFyx1soMVcyxZJ-3" style="edgeStyle=orthogonalEdgeStyle;rounded=0;orthogonalLoop=1;jettySize=auto;html=1;exitX=1;exitY=0.5;exitDx=0;exitDy=0;entryX=0;entryY=0.5;entryDx=0;entryDy=0;fillColor=#f5f5f5;strokeColor=#666666;strokeWidth=2;" parent="1" source="9O1mxxfFyx1soMVcyxZJ-4" target="9O1mxxfFyx1soMVcyxZJ-5" edge="1">
          <mxGeometry relative="1" as="geometry">
            <mxPoint x="200" y="100" as="sourcePoint" />
          </mxGeometry>
        </mxCell>
        <mxCell id="9O1mxxfFyx1soMVcyxZJ-4" value="3" style="text;html=1;align=center;verticalAlign=middle;whiteSpace=wrap;rounded=0;fillColor=#f5f5f5;strokeColor=#666666;fontSize=14;fontColor=#333333;" parent="1" vertex="1">
          <mxGeometry x="120" y="80" width="40" height="20" as="geometry" />
        </mxCell>
        <mxCell id="9O1mxxfFyx1soMVcyxZJ-5" value="4" style="text;html=1;align=center;verticalAlign=middle;whiteSpace=wrap;rounded=0;fillColor=#f5f5f5;strokeColor=#666666;fontSize=14;fontColor=#333333;" parent="1" vertex="1">
          <mxGeometry x="180" y="80" width="40" height="20" as="geometry" />
        </mxCell>
        <mxCell id="9O1mxxfFyx1soMVcyxZJ-6" style="edgeStyle=orthogonalEdgeStyle;rounded=0;orthogonalLoop=1;jettySize=auto;html=1;exitX=1;exitY=0.5;exitDx=0;exitDy=0;entryX=0;entryY=0.5;entryDx=0;entryDy=0;fillColor=#f5f5f5;strokeColor=#666666;strokeWidth=2;" parent="1" source="9O1mxxfFyx1soMVcyxZJ-7" target="9O1mxxfFyx1soMVcyxZJ-9" edge="1">
          <mxGeometry relative="1" as="geometry" />
        </mxCell>
        <mxCell id="9O1mxxfFyx1soMVcyxZJ-7" value="2" style="text;html=1;align=center;verticalAlign=middle;whiteSpace=wrap;rounded=0;fillColor=#dae8fc;strokeColor=#6c8ebf;fontSize=14;fontColor=#333333;" parent="1" vertex="1">
          <mxGeometry x="60" y="100" width="40" height="20" as="geometry" />
        </mxCell>
        <mxCell id="9O1mxxfFyx1soMVcyxZJ-9" value="6" style="text;html=1;align=center;verticalAlign=middle;whiteSpace=wrap;rounded=0;fillColor=#f5f5f5;strokeColor=#666666;fontSize=14;fontColor=#333333;" parent="1" vertex="1">
          <mxGeometry x="120" y="100" width="40" height="20" as="geometry" />
        </mxCell>
        <mxCell id="9O1mxxfFyx1soMVcyxZJ-12" value="root" style="text;html=1;align=center;verticalAlign=middle;whiteSpace=wrap;rounded=0;fontSize=10;" parent="1" vertex="1">
          <mxGeometry x="60" y="200" width="40" height="20" as="geometry" />
        </mxCell>
        <mxCell id="9O1mxxfFyx1soMVcyxZJ-13" value="0" style="text;html=1;align=center;verticalAlign=middle;whiteSpace=wrap;rounded=0;fontSize=10;" parent="1" vertex="1">
          <mxGeometry x="40" y="60" width="20" height="20" as="geometry" />
        </mxCell>
        <mxCell id="9O1mxxfFyx1soMVcyxZJ-14" value="1" style="text;html=1;align=center;verticalAlign=middle;whiteSpace=wrap;rounded=0;fontSize=10;" parent="1" vertex="1">
          <mxGeometry x="40" y="80" width="20" height="20" as="geometry" />
        </mxCell>
        <mxCell id="9O1mxxfFyx1soMVcyxZJ-15" value="2" style="text;html=1;align=center;verticalAlign=middle;whiteSpace=wrap;rounded=0;fontSize=10;" parent="1" vertex="1">
          <mxGeometry x="40" y="100" width="20" height="20" as="geometry" />
        </mxCell>
        <mxCell id="9O1mxxfFyx1soMVcyxZJ-17" value="1" style="text;html=1;align=center;verticalAlign=middle;whiteSpace=wrap;rounded=0;fillColor=#d5e8d4;strokeColor=#82b366;fontSize=14;fontColor=#333333;" parent="1" vertex="1">
          <mxGeometry x="60" y="160" width="40" height="40" as="geometry" />
        </mxCell>
      </root>
    </mxGraphModel>
  </diagram>
  <diagram name="2" id="im-OhJmn6naJiH8KWls7">
    <mxGraphModel dx="794" dy="1231" grid="1" gridSize="10" guides="1" tooltips="1" connect="1" arrows="1" fold="1" page="1" pageScale="1" pageWidth="280" pageHeight="260" math="0" shadow="0">
      <root>
        <mxCell id="5o67Cng7N5j6ugNFy8Ps-0" />
        <mxCell id="5o67Cng7N5j6ugNFy8Ps-1" parent="5o67Cng7N5j6ugNFy8Ps-0" />
        <mxCell id="5o67Cng7N5j6ugNFy8Ps-2" style="edgeStyle=orthogonalEdgeStyle;rounded=0;orthogonalLoop=1;jettySize=auto;html=1;exitX=1;exitY=0.5;exitDx=0;exitDy=0;entryX=0;entryY=0.5;entryDx=0;entryDy=0;fillColor=#f5f5f5;strokeColor=#666666;strokeWidth=2;" parent="5o67Cng7N5j6ugNFy8Ps-1" source="5o67Cng7N5j6ugNFy8Ps-4" target="5o67Cng7N5j6ugNFy8Ps-6" edge="1">
          <mxGeometry relative="1" as="geometry" />
        </mxCell>
        <mxCell id="5o67Cng7N5j6ugNFy8Ps-3" style="edgeStyle=orthogonalEdgeStyle;rounded=0;orthogonalLoop=1;jettySize=auto;html=1;exitX=0.5;exitY=1;exitDx=0;exitDy=0;entryX=0.5;entryY=0;entryDx=0;entryDy=0;fillColor=#d5e8d4;strokeColor=#82b366;" parent="5o67Cng7N5j6ugNFy8Ps-1" source="5o67Cng7N5j6ugNFy8Ps-4" target="H9Ybumux27m5TdsQ4tmM-0" edge="1">
          <mxGeometry relative="1" as="geometry">
            <Array as="points">
              <mxPoint x="80" y="40" />
              <mxPoint x="240" y="40" />
              <mxPoint x="240" y="140" />
              <mxPoint x="140" y="140" />
            </Array>
          </mxGeometry>
        </mxCell>
        <mxCell id="5o67Cng7N5j6ugNFy8Ps-4" value="4" style="text;html=1;align=center;verticalAlign=middle;whiteSpace=wrap;rounded=0;fillColor=#dae8fc;strokeColor=#6c8ebf;fontSize=14;fontColor=#333333;" parent="5o67Cng7N5j6ugNFy8Ps-1" vertex="1">
          <mxGeometry x="60" y="60" width="40" height="20" as="geometry" />
        </mxCell>
        <mxCell id="5o67Cng7N5j6ugNFy8Ps-6" value="5" style="text;html=1;align=center;verticalAlign=middle;whiteSpace=wrap;rounded=0;fillColor=#f5f5f5;strokeColor=#666666;fontSize=14;fontColor=#333333;" parent="5o67Cng7N5j6ugNFy8Ps-1" vertex="1">
          <mxGeometry x="120" y="60" width="40" height="20" as="geometry" />
        </mxCell>
        <mxCell id="5o67Cng7N5j6ugNFy8Ps-8" value="lists" style="text;html=1;align=center;verticalAlign=middle;whiteSpace=wrap;rounded=0;fontSize=10;" parent="5o67Cng7N5j6ugNFy8Ps-1" vertex="1">
          <mxGeometry x="60" y="120" width="160" height="20" as="geometry" />
        </mxCell>
        <mxCell id="5o67Cng7N5j6ugNFy8Ps-9" style="edgeStyle=orthogonalEdgeStyle;rounded=0;orthogonalLoop=1;jettySize=auto;html=1;exitX=1;exitY=0.5;exitDx=0;exitDy=0;entryX=0;entryY=0.5;entryDx=0;entryDy=0;fillColor=#f5f5f5;strokeColor=#666666;strokeWidth=2;" parent="5o67Cng7N5j6ugNFy8Ps-1" source="5o67Cng7N5j6ugNFy8Ps-10" target="5o67Cng7N5j6ugNFy8Ps-12" edge="1">
          <mxGeometry relative="1" as="geometry" />
        </mxCell>
        <mxCell id="5o67Cng7N5j6ugNFy8Ps-10" value="1" style="text;html=1;align=center;verticalAlign=middle;whiteSpace=wrap;rounded=0;fillColor=#d5e8d4;strokeColor=#82b366;fontSize=14;fontColor=#333333;" parent="5o67Cng7N5j6ugNFy8Ps-1" vertex="1">
          <mxGeometry x="60" y="80" width="40" height="20" as="geometry" />
        </mxCell>
        <mxCell id="5o67Cng7N5j6ugNFy8Ps-11" style="edgeStyle=orthogonalEdgeStyle;rounded=0;orthogonalLoop=1;jettySize=auto;html=1;exitX=1;exitY=0.5;exitDx=0;exitDy=0;entryX=0;entryY=0.5;entryDx=0;entryDy=0;fillColor=#f5f5f5;strokeColor=#666666;strokeWidth=2;" parent="5o67Cng7N5j6ugNFy8Ps-1" source="5o67Cng7N5j6ugNFy8Ps-12" target="5o67Cng7N5j6ugNFy8Ps-13" edge="1">
          <mxGeometry relative="1" as="geometry">
            <mxPoint x="200" y="100" as="sourcePoint" />
          </mxGeometry>
        </mxCell>
        <mxCell id="5o67Cng7N5j6ugNFy8Ps-12" value="3" style="text;html=1;align=center;verticalAlign=middle;whiteSpace=wrap;rounded=0;fillColor=#f5f5f5;strokeColor=#666666;fontSize=14;fontColor=#333333;" parent="5o67Cng7N5j6ugNFy8Ps-1" vertex="1">
          <mxGeometry x="120" y="80" width="40" height="20" as="geometry" />
        </mxCell>
        <mxCell id="5o67Cng7N5j6ugNFy8Ps-13" value="4" style="text;html=1;align=center;verticalAlign=middle;whiteSpace=wrap;rounded=0;fillColor=#f5f5f5;strokeColor=#666666;fontSize=14;fontColor=#333333;" parent="5o67Cng7N5j6ugNFy8Ps-1" vertex="1">
          <mxGeometry x="180" y="80" width="40" height="20" as="geometry" />
        </mxCell>
        <mxCell id="5o67Cng7N5j6ugNFy8Ps-14" style="edgeStyle=orthogonalEdgeStyle;rounded=0;orthogonalLoop=1;jettySize=auto;html=1;exitX=1;exitY=0.5;exitDx=0;exitDy=0;entryX=0;entryY=0.5;entryDx=0;entryDy=0;fillColor=#f5f5f5;strokeColor=#666666;strokeWidth=2;" parent="5o67Cng7N5j6ugNFy8Ps-1" source="5o67Cng7N5j6ugNFy8Ps-15" target="5o67Cng7N5j6ugNFy8Ps-16" edge="1">
          <mxGeometry relative="1" as="geometry" />
        </mxCell>
        <mxCell id="5o67Cng7N5j6ugNFy8Ps-15" value="2" style="text;html=1;align=center;verticalAlign=middle;whiteSpace=wrap;rounded=0;fillColor=#dae8fc;strokeColor=#6c8ebf;fontSize=14;fontColor=#333333;" parent="5o67Cng7N5j6ugNFy8Ps-1" vertex="1">
          <mxGeometry x="60" y="100" width="40" height="20" as="geometry" />
        </mxCell>
        <mxCell id="5o67Cng7N5j6ugNFy8Ps-16" value="6" style="text;html=1;align=center;verticalAlign=middle;whiteSpace=wrap;rounded=0;fillColor=#f5f5f5;strokeColor=#666666;fontSize=14;fontColor=#333333;" parent="5o67Cng7N5j6ugNFy8Ps-1" vertex="1">
          <mxGeometry x="120" y="100" width="40" height="20" as="geometry" />
        </mxCell>
        <mxCell id="5o67Cng7N5j6ugNFy8Ps-17" value="root" style="text;html=1;align=center;verticalAlign=middle;whiteSpace=wrap;rounded=0;fontSize=10;" parent="5o67Cng7N5j6ugNFy8Ps-1" vertex="1">
          <mxGeometry x="60" y="200" width="100" height="20" as="geometry" />
        </mxCell>
        <mxCell id="5o67Cng7N5j6ugNFy8Ps-18" value="0" style="text;html=1;align=center;verticalAlign=middle;whiteSpace=wrap;rounded=0;fontSize=10;" parent="5o67Cng7N5j6ugNFy8Ps-1" vertex="1">
          <mxGeometry x="40" y="60" width="20" height="20" as="geometry" />
        </mxCell>
        <mxCell id="5o67Cng7N5j6ugNFy8Ps-19" value="1" style="text;html=1;align=center;verticalAlign=middle;whiteSpace=wrap;rounded=0;fontSize=10;" parent="5o67Cng7N5j6ugNFy8Ps-1" vertex="1">
          <mxGeometry x="40" y="80" width="20" height="20" as="geometry" />
        </mxCell>
        <mxCell id="5o67Cng7N5j6ugNFy8Ps-20" value="2" style="text;html=1;align=center;verticalAlign=middle;whiteSpace=wrap;rounded=0;fontSize=10;" parent="5o67Cng7N5j6ugNFy8Ps-1" vertex="1">
          <mxGeometry x="40" y="100" width="20" height="20" as="geometry" />
        </mxCell>
        <mxCell id="5o67Cng7N5j6ugNFy8Ps-21" value="1" style="text;html=1;align=center;verticalAlign=middle;whiteSpace=wrap;rounded=0;fillColor=#f5f5f5;strokeColor=#666666;fontSize=14;fontColor=#333333;" parent="5o67Cng7N5j6ugNFy8Ps-1" vertex="1">
          <mxGeometry x="60" y="160" width="40" height="40" as="geometry" />
        </mxCell>
        <mxCell id="H9Ybumux27m5TdsQ4tmM-0" value="1" style="text;html=1;align=center;verticalAlign=middle;whiteSpace=wrap;rounded=0;fillColor=#d5e8d4;strokeColor=#82b366;fontSize=14;fontColor=#333333;" parent="5o67Cng7N5j6ugNFy8Ps-1" vertex="1">
          <mxGeometry x="120" y="160" width="40" height="40" as="geometry" />
        </mxCell>
        <mxCell id="H9Ybumux27m5TdsQ4tmM-1" style="edgeStyle=orthogonalEdgeStyle;rounded=0;orthogonalLoop=1;jettySize=auto;html=1;exitX=1;exitY=0.5;exitDx=0;exitDy=0;fillColor=#f5f5f5;strokeColor=#666666;strokeWidth=2;entryX=0;entryY=0.5;entryDx=0;entryDy=0;" parent="5o67Cng7N5j6ugNFy8Ps-1" source="5o67Cng7N5j6ugNFy8Ps-21" target="H9Ybumux27m5TdsQ4tmM-0" edge="1">
          <mxGeometry relative="1" as="geometry">
            <mxPoint x="110" y="120" as="sourcePoint" />
            <mxPoint x="100" y="150" as="targetPoint" />
          </mxGeometry>
        </mxCell>
      </root>
    </mxGraphModel>
  </diagram>
  <diagram name="3" id="yAebx-3Q7_BDviP2Zh0k">
    <mxGraphModel dx="479" dy="602" grid="1" gridSize="10" guides="1" tooltips="1" connect="1" arrows="1" fold="1" page="1" pageScale="1" pageWidth="260" pageHeight="260" math="0" shadow="0">
      <root>
        <mxCell id="woJxgMmWfUOlTaltmUwe-0" />
        <mxCell id="woJxgMmWfUOlTaltmUwe-1" parent="woJxgMmWfUOlTaltmUwe-0" />
        <mxCell id="woJxgMmWfUOlTaltmUwe-2" style="edgeStyle=orthogonalEdgeStyle;rounded=0;orthogonalLoop=1;jettySize=auto;html=1;exitX=1;exitY=0.5;exitDx=0;exitDy=0;entryX=0;entryY=0.5;entryDx=0;entryDy=0;fillColor=#f5f5f5;strokeColor=#666666;strokeWidth=2;" parent="woJxgMmWfUOlTaltmUwe-1" source="woJxgMmWfUOlTaltmUwe-4" target="woJxgMmWfUOlTaltmUwe-5" edge="1">
          <mxGeometry relative="1" as="geometry" />
        </mxCell>
        <mxCell id="woJxgMmWfUOlTaltmUwe-3" style="edgeStyle=orthogonalEdgeStyle;rounded=0;orthogonalLoop=1;jettySize=auto;html=1;exitX=0.5;exitY=0;exitDx=0;exitDy=0;entryX=0.5;entryY=0;entryDx=0;entryDy=0;fillColor=#d5e8d4;strokeColor=#82b366;" parent="woJxgMmWfUOlTaltmUwe-1" source="woJxgMmWfUOlTaltmUwe-13" target="C05Vo2CeYqLaSIB8rj54-0" edge="1">
          <mxGeometry relative="1" as="geometry">
            <Array as="points">
              <mxPoint x="80" y="40" />
              <mxPoint x="200" y="40" />
            </Array>
          </mxGeometry>
        </mxCell>
        <mxCell id="woJxgMmWfUOlTaltmUwe-4" value="4" style="text;html=1;align=center;verticalAlign=middle;whiteSpace=wrap;rounded=0;fillColor=#dae8fc;strokeColor=#6c8ebf;fontSize=14;fontColor=#333333;" parent="woJxgMmWfUOlTaltmUwe-1" vertex="1">
          <mxGeometry x="60" y="60" width="40" height="20" as="geometry" />
        </mxCell>
        <mxCell id="woJxgMmWfUOlTaltmUwe-5" value="5" style="text;html=1;align=center;verticalAlign=middle;whiteSpace=wrap;rounded=0;fillColor=#f5f5f5;strokeColor=#666666;fontSize=14;fontColor=#333333;" parent="woJxgMmWfUOlTaltmUwe-1" vertex="1">
          <mxGeometry x="120" y="60" width="40" height="20" as="geometry" />
        </mxCell>
        <mxCell id="woJxgMmWfUOlTaltmUwe-6" value="lists" style="text;html=1;align=center;verticalAlign=middle;whiteSpace=wrap;rounded=0;fontSize=10;" parent="woJxgMmWfUOlTaltmUwe-1" vertex="1">
          <mxGeometry x="60" y="120" width="100" height="20" as="geometry" />
        </mxCell>
        <mxCell id="woJxgMmWfUOlTaltmUwe-7" style="edgeStyle=orthogonalEdgeStyle;rounded=0;orthogonalLoop=1;jettySize=auto;html=1;exitX=1;exitY=0.5;exitDx=0;exitDy=0;entryX=0;entryY=0.5;entryDx=0;entryDy=0;fillColor=#f5f5f5;strokeColor=#666666;strokeWidth=2;" parent="woJxgMmWfUOlTaltmUwe-1" source="woJxgMmWfUOlTaltmUwe-8" target="woJxgMmWfUOlTaltmUwe-10" edge="1">
          <mxGeometry relative="1" as="geometry" />
        </mxCell>
        <mxCell id="woJxgMmWfUOlTaltmUwe-8" value="3" style="text;html=1;align=center;verticalAlign=middle;whiteSpace=wrap;rounded=0;fillColor=#dae8fc;strokeColor=#6c8ebf;fontSize=14;fontColor=#333333;" parent="woJxgMmWfUOlTaltmUwe-1" vertex="1">
          <mxGeometry x="60" y="80" width="40" height="20" as="geometry" />
        </mxCell>
        <mxCell id="woJxgMmWfUOlTaltmUwe-10" value="4" style="text;html=1;align=center;verticalAlign=middle;whiteSpace=wrap;rounded=0;fillColor=#f5f5f5;strokeColor=#666666;fontSize=14;fontColor=#333333;" parent="woJxgMmWfUOlTaltmUwe-1" vertex="1">
          <mxGeometry x="120" y="80" width="40" height="20" as="geometry" />
        </mxCell>
        <mxCell id="woJxgMmWfUOlTaltmUwe-12" style="edgeStyle=orthogonalEdgeStyle;rounded=0;orthogonalLoop=1;jettySize=auto;html=1;exitX=1;exitY=0.5;exitDx=0;exitDy=0;entryX=0;entryY=0.5;entryDx=0;entryDy=0;fillColor=#f5f5f5;strokeColor=#666666;strokeWidth=2;" parent="woJxgMmWfUOlTaltmUwe-1" source="woJxgMmWfUOlTaltmUwe-13" target="woJxgMmWfUOlTaltmUwe-14" edge="1">
          <mxGeometry relative="1" as="geometry" />
        </mxCell>
        <mxCell id="woJxgMmWfUOlTaltmUwe-13" value="2" style="text;html=1;align=center;verticalAlign=middle;whiteSpace=wrap;rounded=0;fillColor=#d5e8d4;strokeColor=#82b366;fontSize=14;fontColor=#333333;" parent="woJxgMmWfUOlTaltmUwe-1" vertex="1">
          <mxGeometry x="60" y="100" width="40" height="20" as="geometry" />
        </mxCell>
        <mxCell id="woJxgMmWfUOlTaltmUwe-14" value="6" style="text;html=1;align=center;verticalAlign=middle;whiteSpace=wrap;rounded=0;fillColor=#f5f5f5;strokeColor=#666666;fontSize=14;fontColor=#333333;" parent="woJxgMmWfUOlTaltmUwe-1" vertex="1">
          <mxGeometry x="120" y="100" width="40" height="20" as="geometry" />
        </mxCell>
        <mxCell id="woJxgMmWfUOlTaltmUwe-15" value="root" style="text;html=1;align=center;verticalAlign=middle;whiteSpace=wrap;rounded=0;fontSize=10;" parent="woJxgMmWfUOlTaltmUwe-1" vertex="1">
          <mxGeometry x="60" y="200" width="160" height="20" as="geometry" />
        </mxCell>
        <mxCell id="woJxgMmWfUOlTaltmUwe-16" value="0" style="text;html=1;align=center;verticalAlign=middle;whiteSpace=wrap;rounded=0;fontSize=10;" parent="woJxgMmWfUOlTaltmUwe-1" vertex="1">
          <mxGeometry x="40" y="60" width="20" height="20" as="geometry" />
        </mxCell>
        <mxCell id="woJxgMmWfUOlTaltmUwe-17" value="1" style="text;html=1;align=center;verticalAlign=middle;whiteSpace=wrap;rounded=0;fontSize=10;" parent="woJxgMmWfUOlTaltmUwe-1" vertex="1">
          <mxGeometry x="40" y="80" width="20" height="20" as="geometry" />
        </mxCell>
        <mxCell id="woJxgMmWfUOlTaltmUwe-18" value="2" style="text;html=1;align=center;verticalAlign=middle;whiteSpace=wrap;rounded=0;fontSize=10;" parent="woJxgMmWfUOlTaltmUwe-1" vertex="1">
          <mxGeometry x="40" y="100" width="20" height="20" as="geometry" />
        </mxCell>
        <mxCell id="woJxgMmWfUOlTaltmUwe-19" value="1" style="text;html=1;align=center;verticalAlign=middle;whiteSpace=wrap;rounded=0;fillColor=#f5f5f5;strokeColor=#666666;fontSize=14;fontColor=#333333;" parent="woJxgMmWfUOlTaltmUwe-1" vertex="1">
          <mxGeometry x="60" y="160" width="40" height="40" as="geometry" />
        </mxCell>
        <mxCell id="woJxgMmWfUOlTaltmUwe-20" value="1" style="text;html=1;align=center;verticalAlign=middle;whiteSpace=wrap;rounded=0;fillColor=#f5f5f5;strokeColor=#666666;fontSize=14;fontColor=#333333;" parent="woJxgMmWfUOlTaltmUwe-1" vertex="1">
          <mxGeometry x="120" y="160" width="40" height="40" as="geometry" />
        </mxCell>
        <mxCell id="woJxgMmWfUOlTaltmUwe-21" style="edgeStyle=orthogonalEdgeStyle;rounded=0;orthogonalLoop=1;jettySize=auto;html=1;exitX=1;exitY=0.5;exitDx=0;exitDy=0;fillColor=#f5f5f5;strokeColor=#666666;strokeWidth=2;entryX=0;entryY=0.5;entryDx=0;entryDy=0;" parent="woJxgMmWfUOlTaltmUwe-1" source="woJxgMmWfUOlTaltmUwe-19" target="woJxgMmWfUOlTaltmUwe-20" edge="1">
          <mxGeometry relative="1" as="geometry">
            <mxPoint x="110" y="120" as="sourcePoint" />
            <mxPoint x="100" y="150" as="targetPoint" />
          </mxGeometry>
        </mxCell>
        <mxCell id="C05Vo2CeYqLaSIB8rj54-0" value="2" style="text;html=1;align=center;verticalAlign=middle;whiteSpace=wrap;rounded=0;fillColor=#d5e8d4;strokeColor=#82b366;fontSize=14;fontColor=#333333;" parent="woJxgMmWfUOlTaltmUwe-1" vertex="1">
          <mxGeometry x="180" y="160" width="40" height="40" as="geometry" />
        </mxCell>
        <mxCell id="C05Vo2CeYqLaSIB8rj54-1" style="edgeStyle=orthogonalEdgeStyle;rounded=0;orthogonalLoop=1;jettySize=auto;html=1;fillColor=#f5f5f5;strokeColor=#666666;strokeWidth=2;entryX=0;entryY=0.5;entryDx=0;entryDy=0;exitX=1;exitY=0.5;exitDx=0;exitDy=0;" parent="woJxgMmWfUOlTaltmUwe-1" source="woJxgMmWfUOlTaltmUwe-20" target="C05Vo2CeYqLaSIB8rj54-0" edge="1">
          <mxGeometry relative="1" as="geometry">
            <mxPoint x="170" y="200" as="sourcePoint" />
            <mxPoint x="130" y="190" as="targetPoint" />
          </mxGeometry>
        </mxCell>
      </root>
    </mxGraphModel>
  </diagram>
  <diagram name="4" id="jH0MnEpyJXK16ctIf9L2">
    <mxGraphModel dx="575" dy="723" grid="1" gridSize="10" guides="1" tooltips="1" connect="1" arrows="1" fold="1" page="1" pageScale="1" pageWidth="320" pageHeight="260" math="0" shadow="0">
      <root>
        <mxCell id="XREFps9ZSqV4avRoYT1P-0" />
        <mxCell id="XREFps9ZSqV4avRoYT1P-1" parent="XREFps9ZSqV4avRoYT1P-0" />
        <mxCell id="XREFps9ZSqV4avRoYT1P-2" style="edgeStyle=orthogonalEdgeStyle;rounded=0;orthogonalLoop=1;jettySize=auto;html=1;exitX=1;exitY=0.5;exitDx=0;exitDy=0;entryX=0;entryY=0.5;entryDx=0;entryDy=0;fillColor=#f5f5f5;strokeColor=#666666;strokeWidth=2;" edge="1" parent="XREFps9ZSqV4avRoYT1P-1" source="XREFps9ZSqV4avRoYT1P-4" target="XREFps9ZSqV4avRoYT1P-5">
          <mxGeometry relative="1" as="geometry" />
        </mxCell>
        <mxCell id="XREFps9ZSqV4avRoYT1P-3" style="edgeStyle=orthogonalEdgeStyle;rounded=0;orthogonalLoop=1;jettySize=auto;html=1;exitX=0.5;exitY=0;exitDx=0;exitDy=0;entryX=0.5;entryY=0;entryDx=0;entryDy=0;fillColor=#d5e8d4;strokeColor=#82b366;" edge="1" parent="XREFps9ZSqV4avRoYT1P-1" source="XREFps9ZSqV4avRoYT1P-8" target="mUUupLLTwm0Sv9Bexk3d-0">
          <mxGeometry relative="1" as="geometry">
            <Array as="points">
              <mxPoint x="80" y="40" />
              <mxPoint x="260" y="40" />
            </Array>
          </mxGeometry>
        </mxCell>
        <mxCell id="XREFps9ZSqV4avRoYT1P-4" value="4" style="text;html=1;align=center;verticalAlign=middle;whiteSpace=wrap;rounded=0;fillColor=#dae8fc;strokeColor=#6c8ebf;fontSize=14;fontColor=#333333;" vertex="1" parent="XREFps9ZSqV4avRoYT1P-1">
          <mxGeometry x="60" y="59.97" width="40" height="20" as="geometry" />
        </mxCell>
        <mxCell id="XREFps9ZSqV4avRoYT1P-5" value="5" style="text;html=1;align=center;verticalAlign=middle;whiteSpace=wrap;rounded=0;fillColor=#f5f5f5;strokeColor=#666666;fontSize=14;fontColor=#333333;" vertex="1" parent="XREFps9ZSqV4avRoYT1P-1">
          <mxGeometry x="120" y="59.97" width="40" height="20" as="geometry" />
        </mxCell>
        <mxCell id="XREFps9ZSqV4avRoYT1P-6" value="lists" style="text;html=1;align=center;verticalAlign=middle;whiteSpace=wrap;rounded=0;fontSize=10;" vertex="1" parent="XREFps9ZSqV4avRoYT1P-1">
          <mxGeometry x="60" y="119.97" width="100" height="20" as="geometry" />
        </mxCell>
        <mxCell id="XREFps9ZSqV4avRoYT1P-7" style="edgeStyle=orthogonalEdgeStyle;rounded=0;orthogonalLoop=1;jettySize=auto;html=1;exitX=1;exitY=0.5;exitDx=0;exitDy=0;entryX=0;entryY=0.5;entryDx=0;entryDy=0;fillColor=#f5f5f5;strokeColor=#666666;strokeWidth=2;" edge="1" parent="XREFps9ZSqV4avRoYT1P-1" source="XREFps9ZSqV4avRoYT1P-8" target="XREFps9ZSqV4avRoYT1P-9">
          <mxGeometry relative="1" as="geometry" />
        </mxCell>
        <mxCell id="XREFps9ZSqV4avRoYT1P-8" value="3" style="text;html=1;align=center;verticalAlign=middle;whiteSpace=wrap;rounded=0;fillColor=#d5e8d4;strokeColor=#82b366;fontSize=14;fontColor=#333333;" vertex="1" parent="XREFps9ZSqV4avRoYT1P-1">
          <mxGeometry x="60" y="79.97" width="40" height="20" as="geometry" />
        </mxCell>
        <mxCell id="XREFps9ZSqV4avRoYT1P-9" value="4" style="text;html=1;align=center;verticalAlign=middle;whiteSpace=wrap;rounded=0;fillColor=#f5f5f5;strokeColor=#666666;fontSize=14;fontColor=#333333;" vertex="1" parent="XREFps9ZSqV4avRoYT1P-1">
          <mxGeometry x="120" y="79.97" width="40" height="20" as="geometry" />
        </mxCell>
        <mxCell id="XREFps9ZSqV4avRoYT1P-11" value="6" style="text;html=1;align=center;verticalAlign=middle;whiteSpace=wrap;rounded=0;fillColor=#dae8fc;strokeColor=#6c8ebf;fontSize=14;fontColor=#333333;" vertex="1" parent="XREFps9ZSqV4avRoYT1P-1">
          <mxGeometry x="60" y="99.97" width="40" height="20" as="geometry" />
        </mxCell>
        <mxCell id="XREFps9ZSqV4avRoYT1P-13" value="root" style="text;html=1;align=center;verticalAlign=middle;whiteSpace=wrap;rounded=0;fontSize=10;" vertex="1" parent="XREFps9ZSqV4avRoYT1P-1">
          <mxGeometry x="60" y="199.97" width="220" height="20" as="geometry" />
        </mxCell>
        <mxCell id="XREFps9ZSqV4avRoYT1P-14" value="0" style="text;html=1;align=center;verticalAlign=middle;whiteSpace=wrap;rounded=0;fontSize=10;" vertex="1" parent="XREFps9ZSqV4avRoYT1P-1">
          <mxGeometry x="40" y="59.97" width="20" height="20" as="geometry" />
        </mxCell>
        <mxCell id="XREFps9ZSqV4avRoYT1P-15" value="1" style="text;html=1;align=center;verticalAlign=middle;whiteSpace=wrap;rounded=0;fontSize=10;" vertex="1" parent="XREFps9ZSqV4avRoYT1P-1">
          <mxGeometry x="40" y="79.97" width="20" height="20" as="geometry" />
        </mxCell>
        <mxCell id="XREFps9ZSqV4avRoYT1P-16" value="2" style="text;html=1;align=center;verticalAlign=middle;whiteSpace=wrap;rounded=0;fontSize=10;" vertex="1" parent="XREFps9ZSqV4avRoYT1P-1">
          <mxGeometry x="40" y="99.97" width="20" height="20" as="geometry" />
        </mxCell>
        <mxCell id="XREFps9ZSqV4avRoYT1P-17" value="1" style="text;html=1;align=center;verticalAlign=middle;whiteSpace=wrap;rounded=0;fillColor=#f5f5f5;strokeColor=#666666;fontSize=14;fontColor=#333333;" vertex="1" parent="XREFps9ZSqV4avRoYT1P-1">
          <mxGeometry x="60" y="159.97" width="40" height="40" as="geometry" />
        </mxCell>
        <mxCell id="XREFps9ZSqV4avRoYT1P-18" value="1" style="text;html=1;align=center;verticalAlign=middle;whiteSpace=wrap;rounded=0;fillColor=#f5f5f5;strokeColor=#666666;fontSize=14;fontColor=#333333;" vertex="1" parent="XREFps9ZSqV4avRoYT1P-1">
          <mxGeometry x="120" y="159.97" width="40" height="40" as="geometry" />
        </mxCell>
        <mxCell id="XREFps9ZSqV4avRoYT1P-19" style="edgeStyle=orthogonalEdgeStyle;rounded=0;orthogonalLoop=1;jettySize=auto;html=1;exitX=1;exitY=0.5;exitDx=0;exitDy=0;fillColor=#f5f5f5;strokeColor=#666666;strokeWidth=2;entryX=0;entryY=0.5;entryDx=0;entryDy=0;" edge="1" parent="XREFps9ZSqV4avRoYT1P-1" source="XREFps9ZSqV4avRoYT1P-17" target="XREFps9ZSqV4avRoYT1P-18">
          <mxGeometry relative="1" as="geometry">
            <mxPoint x="110" y="119.97" as="sourcePoint" />
            <mxPoint x="100" y="149.97" as="targetPoint" />
          </mxGeometry>
        </mxCell>
        <mxCell id="XREFps9ZSqV4avRoYT1P-20" value="2" style="text;html=1;align=center;verticalAlign=middle;whiteSpace=wrap;rounded=0;fillColor=#f5f5f5;strokeColor=#666666;fontSize=14;fontColor=#333333;" vertex="1" parent="XREFps9ZSqV4avRoYT1P-1">
          <mxGeometry x="180" y="159.97" width="40" height="40" as="geometry" />
        </mxCell>
        <mxCell id="XREFps9ZSqV4avRoYT1P-21" style="edgeStyle=orthogonalEdgeStyle;rounded=0;orthogonalLoop=1;jettySize=auto;html=1;fillColor=#f5f5f5;strokeColor=#666666;strokeWidth=2;entryX=0;entryY=0.5;entryDx=0;entryDy=0;exitX=1;exitY=0.5;exitDx=0;exitDy=0;" edge="1" parent="XREFps9ZSqV4avRoYT1P-1" source="XREFps9ZSqV4avRoYT1P-18" target="XREFps9ZSqV4avRoYT1P-20">
          <mxGeometry relative="1" as="geometry">
            <mxPoint x="170" y="199.97" as="sourcePoint" />
            <mxPoint x="130" y="189.97" as="targetPoint" />
          </mxGeometry>
        </mxCell>
        <mxCell id="mUUupLLTwm0Sv9Bexk3d-0" value="3" style="text;html=1;align=center;verticalAlign=middle;whiteSpace=wrap;rounded=0;fillColor=#d5e8d4;strokeColor=#82b366;fontSize=14;fontColor=#333333;" vertex="1" parent="XREFps9ZSqV4avRoYT1P-1">
          <mxGeometry x="240" y="159.97" width="40" height="40" as="geometry" />
        </mxCell>
        <mxCell id="mUUupLLTwm0Sv9Bexk3d-2" style="edgeStyle=orthogonalEdgeStyle;rounded=0;orthogonalLoop=1;jettySize=auto;html=1;fillColor=#f5f5f5;strokeColor=#666666;strokeWidth=2;entryX=0;entryY=0.5;entryDx=0;entryDy=0;exitX=1;exitY=0.5;exitDx=0;exitDy=0;" edge="1" parent="XREFps9ZSqV4avRoYT1P-1" source="XREFps9ZSqV4avRoYT1P-20" target="mUUupLLTwm0Sv9Bexk3d-0">
          <mxGeometry relative="1" as="geometry">
            <mxPoint x="230" y="189.97" as="sourcePoint" />
            <mxPoint x="190" y="189.97" as="targetPoint" />
          </mxGeometry>
        </mxCell>
      </root>
    </mxGraphModel>
  </diagram>
  <diagram name="5" id="bwax8wrldo-sivjNOdtv">
    <mxGraphModel dx="575" dy="723" grid="1" gridSize="10" guides="1" tooltips="1" connect="1" arrows="1" fold="1" page="1" pageScale="1" pageWidth="320" pageHeight="320" math="0" shadow="0">
      <root>
        <mxCell id="fIvXuedbqXVXO9cbRECb-0" />
        <mxCell id="fIvXuedbqXVXO9cbRECb-1" parent="fIvXuedbqXVXO9cbRECb-0" />
        <mxCell id="fIvXuedbqXVXO9cbRECb-2" style="edgeStyle=orthogonalEdgeStyle;rounded=0;orthogonalLoop=1;jettySize=auto;html=1;exitX=1;exitY=0.5;exitDx=0;exitDy=0;entryX=0;entryY=0.5;entryDx=0;entryDy=0;fillColor=#f5f5f5;strokeColor=#666666;strokeWidth=2;" edge="1" parent="fIvXuedbqXVXO9cbRECb-1" source="fIvXuedbqXVXO9cbRECb-4" target="fIvXuedbqXVXO9cbRECb-5">
          <mxGeometry relative="1" as="geometry" />
        </mxCell>
        <mxCell id="fIvXuedbqXVXO9cbRECb-3" style="edgeStyle=orthogonalEdgeStyle;rounded=0;orthogonalLoop=1;jettySize=auto;html=1;exitX=0.5;exitY=0;exitDx=0;exitDy=0;entryX=0;entryY=0.5;entryDx=0;entryDy=0;fillColor=#d5e8d4;strokeColor=#82b366;" edge="1" parent="fIvXuedbqXVXO9cbRECb-1" source="fIvXuedbqXVXO9cbRECb-4" target="-gWxnfkLSB9vfsf0-zwL-0">
          <mxGeometry relative="1" as="geometry">
            <Array as="points">
              <mxPoint x="80" y="40" />
              <mxPoint x="40" y="40" />
              <mxPoint x="40" y="240" />
            </Array>
          </mxGeometry>
        </mxCell>
        <mxCell id="fIvXuedbqXVXO9cbRECb-4" value="4" style="text;html=1;align=center;verticalAlign=middle;whiteSpace=wrap;rounded=0;fillColor=#d5e8d4;strokeColor=#82b366;fontSize=14;fontColor=#333333;" vertex="1" parent="fIvXuedbqXVXO9cbRECb-1">
          <mxGeometry x="60" y="59.97" width="40" height="20" as="geometry" />
        </mxCell>
        <mxCell id="fIvXuedbqXVXO9cbRECb-5" value="5" style="text;html=1;align=center;verticalAlign=middle;whiteSpace=wrap;rounded=0;fillColor=#f5f5f5;strokeColor=#666666;fontSize=14;fontColor=#333333;" vertex="1" parent="fIvXuedbqXVXO9cbRECb-1">
          <mxGeometry x="120" y="59.97" width="40" height="20" as="geometry" />
        </mxCell>
        <mxCell id="fIvXuedbqXVXO9cbRECb-6" value="lists" style="text;html=1;align=center;verticalAlign=middle;whiteSpace=wrap;rounded=0;fontSize=10;" vertex="1" parent="fIvXuedbqXVXO9cbRECb-1">
          <mxGeometry x="60" y="119.97" width="100" height="20" as="geometry" />
        </mxCell>
        <mxCell id="fIvXuedbqXVXO9cbRECb-8" value="4" style="text;html=1;align=center;verticalAlign=middle;whiteSpace=wrap;rounded=0;fillColor=#dae8fc;strokeColor=#6c8ebf;fontSize=14;fontColor=#333333;" vertex="1" parent="fIvXuedbqXVXO9cbRECb-1">
          <mxGeometry x="60" y="79.97" width="40" height="20" as="geometry" />
        </mxCell>
        <mxCell id="fIvXuedbqXVXO9cbRECb-10" value="6" style="text;html=1;align=center;verticalAlign=middle;whiteSpace=wrap;rounded=0;fillColor=#dae8fc;strokeColor=#6c8ebf;fontSize=14;fontColor=#333333;" vertex="1" parent="fIvXuedbqXVXO9cbRECb-1">
          <mxGeometry x="60" y="99.97" width="40" height="20" as="geometry" />
        </mxCell>
        <mxCell id="fIvXuedbqXVXO9cbRECb-11" value="root" style="text;html=1;align=center;verticalAlign=middle;whiteSpace=wrap;rounded=0;fontSize=10;" vertex="1" parent="fIvXuedbqXVXO9cbRECb-1">
          <mxGeometry x="60" y="260" width="220" height="20" as="geometry" />
        </mxCell>
        <mxCell id="fIvXuedbqXVXO9cbRECb-12" value="0" style="text;html=1;align=center;verticalAlign=middle;whiteSpace=wrap;rounded=0;fontSize=10;" vertex="1" parent="fIvXuedbqXVXO9cbRECb-1">
          <mxGeometry x="40" y="59.97" width="20" height="20" as="geometry" />
        </mxCell>
        <mxCell id="fIvXuedbqXVXO9cbRECb-13" value="1" style="text;html=1;align=center;verticalAlign=middle;whiteSpace=wrap;rounded=0;fontSize=10;" vertex="1" parent="fIvXuedbqXVXO9cbRECb-1">
          <mxGeometry x="40" y="79.97" width="20" height="20" as="geometry" />
        </mxCell>
        <mxCell id="fIvXuedbqXVXO9cbRECb-14" value="2" style="text;html=1;align=center;verticalAlign=middle;whiteSpace=wrap;rounded=0;fontSize=10;" vertex="1" parent="fIvXuedbqXVXO9cbRECb-1">
          <mxGeometry x="40" y="99.97" width="20" height="20" as="geometry" />
        </mxCell>
        <mxCell id="fIvXuedbqXVXO9cbRECb-15" value="1" style="text;html=1;align=center;verticalAlign=middle;whiteSpace=wrap;rounded=0;fillColor=#f5f5f5;strokeColor=#666666;fontSize=14;fontColor=#333333;" vertex="1" parent="fIvXuedbqXVXO9cbRECb-1">
          <mxGeometry x="60" y="159.97" width="40" height="40" as="geometry" />
        </mxCell>
        <mxCell id="fIvXuedbqXVXO9cbRECb-16" value="1" style="text;html=1;align=center;verticalAlign=middle;whiteSpace=wrap;rounded=0;fillColor=#f5f5f5;strokeColor=#666666;fontSize=14;fontColor=#333333;" vertex="1" parent="fIvXuedbqXVXO9cbRECb-1">
          <mxGeometry x="120" y="159.97" width="40" height="40" as="geometry" />
        </mxCell>
        <mxCell id="fIvXuedbqXVXO9cbRECb-17" style="edgeStyle=orthogonalEdgeStyle;rounded=0;orthogonalLoop=1;jettySize=auto;html=1;exitX=1;exitY=0.5;exitDx=0;exitDy=0;fillColor=#f5f5f5;strokeColor=#666666;strokeWidth=2;entryX=0;entryY=0.5;entryDx=0;entryDy=0;" edge="1" parent="fIvXuedbqXVXO9cbRECb-1" source="fIvXuedbqXVXO9cbRECb-15" target="fIvXuedbqXVXO9cbRECb-16">
          <mxGeometry relative="1" as="geometry">
            <mxPoint x="110" y="119.97" as="sourcePoint" />
            <mxPoint x="100" y="149.97" as="targetPoint" />
          </mxGeometry>
        </mxCell>
        <mxCell id="fIvXuedbqXVXO9cbRECb-18" value="2" style="text;html=1;align=center;verticalAlign=middle;whiteSpace=wrap;rounded=0;fillColor=#f5f5f5;strokeColor=#666666;fontSize=14;fontColor=#333333;" vertex="1" parent="fIvXuedbqXVXO9cbRECb-1">
          <mxGeometry x="180" y="159.97" width="40" height="40" as="geometry" />
        </mxCell>
        <mxCell id="fIvXuedbqXVXO9cbRECb-19" style="edgeStyle=orthogonalEdgeStyle;rounded=0;orthogonalLoop=1;jettySize=auto;html=1;fillColor=#f5f5f5;strokeColor=#666666;strokeWidth=2;entryX=0;entryY=0.5;entryDx=0;entryDy=0;exitX=1;exitY=0.5;exitDx=0;exitDy=0;" edge="1" parent="fIvXuedbqXVXO9cbRECb-1" source="fIvXuedbqXVXO9cbRECb-16" target="fIvXuedbqXVXO9cbRECb-18">
          <mxGeometry relative="1" as="geometry">
            <mxPoint x="170" y="199.97" as="sourcePoint" />
            <mxPoint x="130" y="189.97" as="targetPoint" />
          </mxGeometry>
        </mxCell>
        <mxCell id="fIvXuedbqXVXO9cbRECb-20" value="3" style="text;html=1;align=center;verticalAlign=middle;whiteSpace=wrap;rounded=0;fillColor=#f5f5f5;strokeColor=#666666;fontSize=14;fontColor=#333333;" vertex="1" parent="fIvXuedbqXVXO9cbRECb-1">
          <mxGeometry x="240" y="159.97" width="40" height="40" as="geometry" />
        </mxCell>
        <mxCell id="fIvXuedbqXVXO9cbRECb-21" style="edgeStyle=orthogonalEdgeStyle;rounded=0;orthogonalLoop=1;jettySize=auto;html=1;fillColor=#f5f5f5;strokeColor=#666666;strokeWidth=2;entryX=0;entryY=0.5;entryDx=0;entryDy=0;exitX=1;exitY=0.5;exitDx=0;exitDy=0;" edge="1" parent="fIvXuedbqXVXO9cbRECb-1" source="fIvXuedbqXVXO9cbRECb-18" target="fIvXuedbqXVXO9cbRECb-20">
          <mxGeometry relative="1" as="geometry">
            <mxPoint x="230" y="189.97" as="sourcePoint" />
            <mxPoint x="190" y="189.97" as="targetPoint" />
          </mxGeometry>
        </mxCell>
        <mxCell id="-gWxnfkLSB9vfsf0-zwL-0" value="4" style="text;html=1;align=center;verticalAlign=middle;whiteSpace=wrap;rounded=0;fillColor=#d5e8d4;strokeColor=#82b366;fontSize=14;fontColor=#333333;" vertex="1" parent="fIvXuedbqXVXO9cbRECb-1">
          <mxGeometry x="240" y="219.97" width="40" height="40" as="geometry" />
        </mxCell>
        <mxCell id="-gWxnfkLSB9vfsf0-zwL-1" style="edgeStyle=orthogonalEdgeStyle;rounded=0;orthogonalLoop=1;jettySize=auto;html=1;fillColor=#f5f5f5;strokeColor=#666666;strokeWidth=2;entryX=0.5;entryY=0;entryDx=0;entryDy=0;exitX=0.5;exitY=1;exitDx=0;exitDy=0;" edge="1" parent="fIvXuedbqXVXO9cbRECb-1" source="fIvXuedbqXVXO9cbRECb-20" target="-gWxnfkLSB9vfsf0-zwL-0">
          <mxGeometry relative="1" as="geometry">
            <mxPoint x="240" y="210" as="sourcePoint" />
            <mxPoint x="230" y="140" as="targetPoint" />
          </mxGeometry>
        </mxCell>
      </root>
    </mxGraphModel>
  </diagram>
  <diagram name="6" id="kAhDqssyzEWZ9hmpMz54">
    <mxGraphModel dx="575" dy="723" grid="1" gridSize="10" guides="1" tooltips="1" connect="1" arrows="1" fold="1" page="1" pageScale="1" pageWidth="320" pageHeight="320" math="0" shadow="0">
      <root>
        <mxCell id="lpwteYBKHiOrwCZfbNTK-0" />
        <mxCell id="lpwteYBKHiOrwCZfbNTK-1" parent="lpwteYBKHiOrwCZfbNTK-0" />
        <mxCell id="lpwteYBKHiOrwCZfbNTK-3" style="edgeStyle=orthogonalEdgeStyle;rounded=0;orthogonalLoop=1;jettySize=auto;html=1;exitX=0.5;exitY=1;exitDx=0;exitDy=0;entryX=0;entryY=0.5;entryDx=0;entryDy=0;fillColor=#d5e8d4;strokeColor=#82b366;" edge="1" parent="lpwteYBKHiOrwCZfbNTK-1" source="lpwteYBKHiOrwCZfbNTK-4" target="dEDm9Ykr880yS6MXCStw-0">
          <mxGeometry relative="1" as="geometry">
            <Array as="points">
              <mxPoint x="80" y="40" />
              <mxPoint x="40" y="40" />
              <mxPoint x="40" y="240" />
            </Array>
          </mxGeometry>
        </mxCell>
        <mxCell id="lpwteYBKHiOrwCZfbNTK-4" value="5" style="text;html=1;align=center;verticalAlign=middle;whiteSpace=wrap;rounded=0;fillColor=#dae8fc;strokeColor=#6c8ebf;fontSize=14;fontColor=#333333;" vertex="1" parent="lpwteYBKHiOrwCZfbNTK-1">
          <mxGeometry x="60" y="59.97" width="40" height="20" as="geometry" />
        </mxCell>
        <mxCell id="lpwteYBKHiOrwCZfbNTK-6" value="lists" style="text;html=1;align=center;verticalAlign=middle;whiteSpace=wrap;rounded=0;fontSize=10;" vertex="1" parent="lpwteYBKHiOrwCZfbNTK-1">
          <mxGeometry x="60" y="119.97" width="40" height="20" as="geometry" />
        </mxCell>
        <mxCell id="lpwteYBKHiOrwCZfbNTK-7" value="4" style="text;html=1;align=center;verticalAlign=middle;whiteSpace=wrap;rounded=0;fillColor=#d5e8d4;strokeColor=#82b366;fontSize=14;fontColor=#333333;" vertex="1" parent="lpwteYBKHiOrwCZfbNTK-1">
          <mxGeometry x="60" y="79.97" width="40" height="20" as="geometry" />
        </mxCell>
        <mxCell id="lpwteYBKHiOrwCZfbNTK-8" value="6" style="text;html=1;align=center;verticalAlign=middle;whiteSpace=wrap;rounded=0;fillColor=#dae8fc;strokeColor=#6c8ebf;fontSize=14;fontColor=#333333;" vertex="1" parent="lpwteYBKHiOrwCZfbNTK-1">
          <mxGeometry x="60" y="99.97" width="40" height="20" as="geometry" />
        </mxCell>
        <mxCell id="lpwteYBKHiOrwCZfbNTK-9" value="root" style="text;html=1;align=center;verticalAlign=middle;whiteSpace=wrap;rounded=0;fontSize=10;" vertex="1" parent="lpwteYBKHiOrwCZfbNTK-1">
          <mxGeometry x="60" y="260" width="220" height="20" as="geometry" />
        </mxCell>
        <mxCell id="lpwteYBKHiOrwCZfbNTK-10" value="0" style="text;html=1;align=center;verticalAlign=middle;whiteSpace=wrap;rounded=0;fontSize=10;" vertex="1" parent="lpwteYBKHiOrwCZfbNTK-1">
          <mxGeometry x="40" y="59.97" width="20" height="20" as="geometry" />
        </mxCell>
        <mxCell id="lpwteYBKHiOrwCZfbNTK-11" value="1" style="text;html=1;align=center;verticalAlign=middle;whiteSpace=wrap;rounded=0;fontSize=10;" vertex="1" parent="lpwteYBKHiOrwCZfbNTK-1">
          <mxGeometry x="40" y="79.97" width="20" height="20" as="geometry" />
        </mxCell>
        <mxCell id="lpwteYBKHiOrwCZfbNTK-12" value="2" style="text;html=1;align=center;verticalAlign=middle;whiteSpace=wrap;rounded=0;fontSize=10;" vertex="1" parent="lpwteYBKHiOrwCZfbNTK-1">
          <mxGeometry x="40" y="99.97" width="20" height="20" as="geometry" />
        </mxCell>
        <mxCell id="lpwteYBKHiOrwCZfbNTK-13" value="1" style="text;html=1;align=center;verticalAlign=middle;whiteSpace=wrap;rounded=0;fillColor=#f5f5f5;strokeColor=#666666;fontSize=14;fontColor=#333333;" vertex="1" parent="lpwteYBKHiOrwCZfbNTK-1">
          <mxGeometry x="60" y="159.97" width="40" height="40" as="geometry" />
        </mxCell>
        <mxCell id="lpwteYBKHiOrwCZfbNTK-14" value="1" style="text;html=1;align=center;verticalAlign=middle;whiteSpace=wrap;rounded=0;fillColor=#f5f5f5;strokeColor=#666666;fontSize=14;fontColor=#333333;" vertex="1" parent="lpwteYBKHiOrwCZfbNTK-1">
          <mxGeometry x="120" y="159.97" width="40" height="40" as="geometry" />
        </mxCell>
        <mxCell id="lpwteYBKHiOrwCZfbNTK-15" style="edgeStyle=orthogonalEdgeStyle;rounded=0;orthogonalLoop=1;jettySize=auto;html=1;exitX=1;exitY=0.5;exitDx=0;exitDy=0;fillColor=#f5f5f5;strokeColor=#666666;strokeWidth=2;entryX=0;entryY=0.5;entryDx=0;entryDy=0;" edge="1" parent="lpwteYBKHiOrwCZfbNTK-1" source="lpwteYBKHiOrwCZfbNTK-13" target="lpwteYBKHiOrwCZfbNTK-14">
          <mxGeometry relative="1" as="geometry">
            <mxPoint x="110" y="119.97" as="sourcePoint" />
            <mxPoint x="100" y="149.97" as="targetPoint" />
          </mxGeometry>
        </mxCell>
        <mxCell id="lpwteYBKHiOrwCZfbNTK-16" value="2" style="text;html=1;align=center;verticalAlign=middle;whiteSpace=wrap;rounded=0;fillColor=#f5f5f5;strokeColor=#666666;fontSize=14;fontColor=#333333;" vertex="1" parent="lpwteYBKHiOrwCZfbNTK-1">
          <mxGeometry x="180" y="159.97" width="40" height="40" as="geometry" />
        </mxCell>
        <mxCell id="lpwteYBKHiOrwCZfbNTK-17" style="edgeStyle=orthogonalEdgeStyle;rounded=0;orthogonalLoop=1;jettySize=auto;html=1;fillColor=#f5f5f5;strokeColor=#666666;strokeWidth=2;entryX=0;entryY=0.5;entryDx=0;entryDy=0;exitX=1;exitY=0.5;exitDx=0;exitDy=0;" edge="1" parent="lpwteYBKHiOrwCZfbNTK-1" source="lpwteYBKHiOrwCZfbNTK-14" target="lpwteYBKHiOrwCZfbNTK-16">
          <mxGeometry relative="1" as="geometry">
            <mxPoint x="170" y="199.97" as="sourcePoint" />
            <mxPoint x="130" y="189.97" as="targetPoint" />
          </mxGeometry>
        </mxCell>
        <mxCell id="lpwteYBKHiOrwCZfbNTK-18" value="3" style="text;html=1;align=center;verticalAlign=middle;whiteSpace=wrap;rounded=0;fillColor=#f5f5f5;strokeColor=#666666;fontSize=14;fontColor=#333333;" vertex="1" parent="lpwteYBKHiOrwCZfbNTK-1">
          <mxGeometry x="240" y="159.97" width="40" height="40" as="geometry" />
        </mxCell>
        <mxCell id="lpwteYBKHiOrwCZfbNTK-19" style="edgeStyle=orthogonalEdgeStyle;rounded=0;orthogonalLoop=1;jettySize=auto;html=1;fillColor=#f5f5f5;strokeColor=#666666;strokeWidth=2;entryX=0;entryY=0.5;entryDx=0;entryDy=0;exitX=1;exitY=0.5;exitDx=0;exitDy=0;" edge="1" parent="lpwteYBKHiOrwCZfbNTK-1" source="lpwteYBKHiOrwCZfbNTK-16" target="lpwteYBKHiOrwCZfbNTK-18">
          <mxGeometry relative="1" as="geometry">
            <mxPoint x="230" y="189.97" as="sourcePoint" />
            <mxPoint x="190" y="189.97" as="targetPoint" />
          </mxGeometry>
        </mxCell>
        <mxCell id="lpwteYBKHiOrwCZfbNTK-20" value="4" style="text;html=1;align=center;verticalAlign=middle;whiteSpace=wrap;rounded=0;fillColor=#f5f5f5;strokeColor=#666666;fontSize=14;fontColor=#333333;" vertex="1" parent="lpwteYBKHiOrwCZfbNTK-1">
          <mxGeometry x="240" y="219.97" width="40" height="40" as="geometry" />
        </mxCell>
        <mxCell id="lpwteYBKHiOrwCZfbNTK-21" style="edgeStyle=orthogonalEdgeStyle;rounded=0;orthogonalLoop=1;jettySize=auto;html=1;fillColor=#f5f5f5;strokeColor=#666666;strokeWidth=2;entryX=0.5;entryY=0;entryDx=0;entryDy=0;exitX=0.5;exitY=1;exitDx=0;exitDy=0;" edge="1" parent="lpwteYBKHiOrwCZfbNTK-1" source="lpwteYBKHiOrwCZfbNTK-18" target="lpwteYBKHiOrwCZfbNTK-20">
          <mxGeometry relative="1" as="geometry">
            <mxPoint x="240" y="210" as="sourcePoint" />
            <mxPoint x="230" y="140" as="targetPoint" />
          </mxGeometry>
        </mxCell>
        <mxCell id="dEDm9Ykr880yS6MXCStw-0" value="4" style="text;html=1;align=center;verticalAlign=middle;whiteSpace=wrap;rounded=0;fillColor=#d5e8d4;strokeColor=#82b366;fontSize=14;fontColor=#333333;" vertex="1" parent="lpwteYBKHiOrwCZfbNTK-1">
          <mxGeometry x="180" y="220" width="40" height="40" as="geometry" />
        </mxCell>
        <mxCell id="dEDm9Ykr880yS6MXCStw-1" style="edgeStyle=orthogonalEdgeStyle;rounded=0;orthogonalLoop=1;jettySize=auto;html=1;fillColor=#f5f5f5;strokeColor=#666666;strokeWidth=2;entryX=1;entryY=0.5;entryDx=0;entryDy=0;exitX=0;exitY=0.5;exitDx=0;exitDy=0;" edge="1" parent="lpwteYBKHiOrwCZfbNTK-1" source="lpwteYBKHiOrwCZfbNTK-20" target="dEDm9Ykr880yS6MXCStw-0">
          <mxGeometry relative="1" as="geometry">
            <mxPoint x="270" y="210" as="sourcePoint" />
            <mxPoint x="270" y="230" as="targetPoint" />
          </mxGeometry>
        </mxCell>
      </root>
    </mxGraphModel>
  </diagram>
  <diagram name="7" id="n8TE7w2FMH6hMV5pJ5oA">
    <mxGraphModel dx="479" dy="602" grid="1" gridSize="10" guides="1" tooltips="1" connect="1" arrows="1" fold="1" page="1" pageScale="1" pageWidth="320" pageHeight="320" math="0" shadow="0">
      <root>
        <mxCell id="kfoB9jmnyh8NUtfi-3Vv-0" />
        <mxCell id="kfoB9jmnyh8NUtfi-3Vv-1" parent="kfoB9jmnyh8NUtfi-3Vv-0" />
        <mxCell id="kfoB9jmnyh8NUtfi-3Vv-2" style="edgeStyle=orthogonalEdgeStyle;rounded=0;orthogonalLoop=1;jettySize=auto;html=1;exitX=0.5;exitY=1;exitDx=0;exitDy=0;entryX=0;entryY=0.5;entryDx=0;entryDy=0;fillColor=#d5e8d4;strokeColor=#82b366;" edge="1" parent="kfoB9jmnyh8NUtfi-3Vv-1" source="kfoB9jmnyh8NUtfi-3Vv-3" target="kfoB9jmnyh8NUtfi-3Vv-20">
          <mxGeometry relative="1" as="geometry">
            <Array as="points">
              <mxPoint x="80" y="40" />
              <mxPoint x="40" y="40" />
              <mxPoint x="40" y="240" />
            </Array>
          </mxGeometry>
        </mxCell>
        <mxCell id="kfoB9jmnyh8NUtfi-3Vv-3" value="5" style="text;html=1;align=center;verticalAlign=middle;whiteSpace=wrap;rounded=0;fillColor=#d5e8d4;strokeColor=#82b366;fontSize=14;fontColor=#333333;" vertex="1" parent="kfoB9jmnyh8NUtfi-3Vv-1">
          <mxGeometry x="60" y="59.97" width="40" height="20" as="geometry" />
        </mxCell>
        <mxCell id="kfoB9jmnyh8NUtfi-3Vv-4" value="lists" style="text;html=1;align=center;verticalAlign=middle;whiteSpace=wrap;rounded=0;fontSize=10;" vertex="1" parent="kfoB9jmnyh8NUtfi-3Vv-1">
          <mxGeometry x="60" y="119.97" width="40" height="20" as="geometry" />
        </mxCell>
        <mxCell id="kfoB9jmnyh8NUtfi-3Vv-6" value="6" style="text;html=1;align=center;verticalAlign=middle;whiteSpace=wrap;rounded=0;fillColor=#dae8fc;strokeColor=#6c8ebf;fontSize=14;fontColor=#333333;" vertex="1" parent="kfoB9jmnyh8NUtfi-3Vv-1">
          <mxGeometry x="60" y="99.97" width="40" height="20" as="geometry" />
        </mxCell>
        <mxCell id="kfoB9jmnyh8NUtfi-3Vv-7" value="root" style="text;html=1;align=center;verticalAlign=middle;whiteSpace=wrap;rounded=0;fontSize=10;" vertex="1" parent="kfoB9jmnyh8NUtfi-3Vv-1">
          <mxGeometry x="60" y="260" width="220" height="20" as="geometry" />
        </mxCell>
        <mxCell id="kfoB9jmnyh8NUtfi-3Vv-8" value="0" style="text;html=1;align=center;verticalAlign=middle;whiteSpace=wrap;rounded=0;fontSize=10;" vertex="1" parent="kfoB9jmnyh8NUtfi-3Vv-1">
          <mxGeometry x="40" y="59.97" width="20" height="20" as="geometry" />
        </mxCell>
        <mxCell id="kfoB9jmnyh8NUtfi-3Vv-9" value="1" style="text;html=1;align=center;verticalAlign=middle;whiteSpace=wrap;rounded=0;fontSize=10;" vertex="1" parent="kfoB9jmnyh8NUtfi-3Vv-1">
          <mxGeometry x="40" y="79.97" width="20" height="20" as="geometry" />
        </mxCell>
        <mxCell id="kfoB9jmnyh8NUtfi-3Vv-10" value="2" style="text;html=1;align=center;verticalAlign=middle;whiteSpace=wrap;rounded=0;fontSize=10;" vertex="1" parent="kfoB9jmnyh8NUtfi-3Vv-1">
          <mxGeometry x="40" y="99.97" width="20" height="20" as="geometry" />
        </mxCell>
        <mxCell id="kfoB9jmnyh8NUtfi-3Vv-11" value="1" style="text;html=1;align=center;verticalAlign=middle;whiteSpace=wrap;rounded=0;fillColor=#f5f5f5;strokeColor=#666666;fontSize=14;fontColor=#333333;" vertex="1" parent="kfoB9jmnyh8NUtfi-3Vv-1">
          <mxGeometry x="60" y="159.97" width="40" height="40" as="geometry" />
        </mxCell>
        <mxCell id="kfoB9jmnyh8NUtfi-3Vv-12" value="1" style="text;html=1;align=center;verticalAlign=middle;whiteSpace=wrap;rounded=0;fillColor=#f5f5f5;strokeColor=#666666;fontSize=14;fontColor=#333333;" vertex="1" parent="kfoB9jmnyh8NUtfi-3Vv-1">
          <mxGeometry x="120" y="159.97" width="40" height="40" as="geometry" />
        </mxCell>
        <mxCell id="kfoB9jmnyh8NUtfi-3Vv-13" style="edgeStyle=orthogonalEdgeStyle;rounded=0;orthogonalLoop=1;jettySize=auto;html=1;exitX=1;exitY=0.5;exitDx=0;exitDy=0;fillColor=#f5f5f5;strokeColor=#666666;strokeWidth=2;entryX=0;entryY=0.5;entryDx=0;entryDy=0;" edge="1" parent="kfoB9jmnyh8NUtfi-3Vv-1" source="kfoB9jmnyh8NUtfi-3Vv-11" target="kfoB9jmnyh8NUtfi-3Vv-12">
          <mxGeometry relative="1" as="geometry">
            <mxPoint x="110" y="119.97" as="sourcePoint" />
            <mxPoint x="100" y="149.97" as="targetPoint" />
          </mxGeometry>
        </mxCell>
        <mxCell id="kfoB9jmnyh8NUtfi-3Vv-14" value="2" style="text;html=1;align=center;verticalAlign=middle;whiteSpace=wrap;rounded=0;fillColor=#f5f5f5;strokeColor=#666666;fontSize=14;fontColor=#333333;" vertex="1" parent="kfoB9jmnyh8NUtfi-3Vv-1">
          <mxGeometry x="180" y="159.97" width="40" height="40" as="geometry" />
        </mxCell>
        <mxCell id="kfoB9jmnyh8NUtfi-3Vv-15" style="edgeStyle=orthogonalEdgeStyle;rounded=0;orthogonalLoop=1;jettySize=auto;html=1;fillColor=#f5f5f5;strokeColor=#666666;strokeWidth=2;entryX=0;entryY=0.5;entryDx=0;entryDy=0;exitX=1;exitY=0.5;exitDx=0;exitDy=0;" edge="1" parent="kfoB9jmnyh8NUtfi-3Vv-1" source="kfoB9jmnyh8NUtfi-3Vv-12" target="kfoB9jmnyh8NUtfi-3Vv-14">
          <mxGeometry relative="1" as="geometry">
            <mxPoint x="170" y="199.97" as="sourcePoint" />
            <mxPoint x="130" y="189.97" as="targetPoint" />
          </mxGeometry>
        </mxCell>
        <mxCell id="kfoB9jmnyh8NUtfi-3Vv-16" value="3" style="text;html=1;align=center;verticalAlign=middle;whiteSpace=wrap;rounded=0;fillColor=#f5f5f5;strokeColor=#666666;fontSize=14;fontColor=#333333;" vertex="1" parent="kfoB9jmnyh8NUtfi-3Vv-1">
          <mxGeometry x="240" y="159.97" width="40" height="40" as="geometry" />
        </mxCell>
        <mxCell id="kfoB9jmnyh8NUtfi-3Vv-17" style="edgeStyle=orthogonalEdgeStyle;rounded=0;orthogonalLoop=1;jettySize=auto;html=1;fillColor=#f5f5f5;strokeColor=#666666;strokeWidth=2;entryX=0;entryY=0.5;entryDx=0;entryDy=0;exitX=1;exitY=0.5;exitDx=0;exitDy=0;" edge="1" parent="kfoB9jmnyh8NUtfi-3Vv-1" source="kfoB9jmnyh8NUtfi-3Vv-14" target="kfoB9jmnyh8NUtfi-3Vv-16">
          <mxGeometry relative="1" as="geometry">
            <mxPoint x="230" y="189.97" as="sourcePoint" />
            <mxPoint x="190" y="189.97" as="targetPoint" />
          </mxGeometry>
        </mxCell>
        <mxCell id="kfoB9jmnyh8NUtfi-3Vv-18" value="4" style="text;html=1;align=center;verticalAlign=middle;whiteSpace=wrap;rounded=0;fillColor=#f5f5f5;strokeColor=#666666;fontSize=14;fontColor=#333333;" vertex="1" parent="kfoB9jmnyh8NUtfi-3Vv-1">
          <mxGeometry x="240" y="219.97" width="40" height="40" as="geometry" />
        </mxCell>
        <mxCell id="kfoB9jmnyh8NUtfi-3Vv-19" style="edgeStyle=orthogonalEdgeStyle;rounded=0;orthogonalLoop=1;jettySize=auto;html=1;fillColor=#f5f5f5;strokeColor=#666666;strokeWidth=2;entryX=0.5;entryY=0;entryDx=0;entryDy=0;exitX=0.5;exitY=1;exitDx=0;exitDy=0;" edge="1" parent="kfoB9jmnyh8NUtfi-3Vv-1" source="kfoB9jmnyh8NUtfi-3Vv-16" target="kfoB9jmnyh8NUtfi-3Vv-18">
          <mxGeometry relative="1" as="geometry">
            <mxPoint x="240" y="210" as="sourcePoint" />
            <mxPoint x="230" y="140" as="targetPoint" />
          </mxGeometry>
        </mxCell>
        <mxCell id="kfoB9jmnyh8NUtfi-3Vv-20" value="5" style="text;html=1;align=center;verticalAlign=middle;whiteSpace=wrap;rounded=0;fillColor=#d5e8d4;strokeColor=#82b366;fontSize=14;fontColor=#333333;" vertex="1" parent="kfoB9jmnyh8NUtfi-3Vv-1">
          <mxGeometry x="120" y="219.97" width="40" height="40" as="geometry" />
        </mxCell>
        <mxCell id="kfoB9jmnyh8NUtfi-3Vv-21" style="edgeStyle=orthogonalEdgeStyle;rounded=0;orthogonalLoop=1;jettySize=auto;html=1;fillColor=#f5f5f5;strokeColor=#666666;strokeWidth=2;exitX=0;exitY=0.5;exitDx=0;exitDy=0;entryX=1;entryY=0.5;entryDx=0;entryDy=0;" edge="1" parent="kfoB9jmnyh8NUtfi-3Vv-1" source="kfoB9jmnyh8NUtfi-3Vv-18" target="0yU_Vo0e9GHzs1S5oCh5-0">
          <mxGeometry relative="1" as="geometry">
            <mxPoint x="270" y="210" as="sourcePoint" />
            <mxPoint x="230" y="240" as="targetPoint" />
          </mxGeometry>
        </mxCell>
        <mxCell id="0yU_Vo0e9GHzs1S5oCh5-0" value="4" style="text;html=1;align=center;verticalAlign=middle;whiteSpace=wrap;rounded=0;fillColor=#f5f5f5;strokeColor=#666666;fontSize=14;fontColor=#333333;" vertex="1" parent="kfoB9jmnyh8NUtfi-3Vv-1">
          <mxGeometry x="180" y="220" width="40" height="40" as="geometry" />
        </mxCell>
        <mxCell id="0yU_Vo0e9GHzs1S5oCh5-1" style="edgeStyle=orthogonalEdgeStyle;rounded=0;orthogonalLoop=1;jettySize=auto;html=1;fillColor=#f5f5f5;strokeColor=#666666;strokeWidth=2;entryX=1;entryY=0.5;entryDx=0;entryDy=0;exitX=0;exitY=0.5;exitDx=0;exitDy=0;" edge="1" parent="kfoB9jmnyh8NUtfi-3Vv-1" source="0yU_Vo0e9GHzs1S5oCh5-0" target="kfoB9jmnyh8NUtfi-3Vv-20">
          <mxGeometry relative="1" as="geometry">
            <mxPoint x="170" y="240" as="sourcePoint" />
            <mxPoint x="230" y="250" as="targetPoint" />
          </mxGeometry>
        </mxCell>
      </root>
    </mxGraphModel>
  </diagram>
  <diagram name="8" id="RYuaIkEZAAgGDTJ_bZwi">
    <mxGraphModel dx="479" dy="602" grid="1" gridSize="10" guides="1" tooltips="1" connect="1" arrows="1" fold="1" page="1" pageScale="1" pageWidth="320" pageHeight="320" math="0" shadow="0">
      <root>
        <mxCell id="-ffWcNgMU6-ht5LjwaNp-0" />
        <mxCell id="-ffWcNgMU6-ht5LjwaNp-1" parent="-ffWcNgMU6-ht5LjwaNp-0" />
        <mxCell id="-ffWcNgMU6-ht5LjwaNp-2" style="edgeStyle=orthogonalEdgeStyle;rounded=0;orthogonalLoop=1;jettySize=auto;html=1;exitX=0.5;exitY=0;exitDx=0;exitDy=0;fillColor=#dae8fc;strokeColor=#6c8ebf;entryX=0;entryY=0.5;entryDx=0;entryDy=0;" edge="1" parent="-ffWcNgMU6-ht5LjwaNp-1" source="-ffWcNgMU6-ht5LjwaNp-5" target="bZbiZtt5bFkba_RCO48a-0">
          <mxGeometry relative="1" as="geometry">
            <Array as="points">
              <mxPoint x="80" y="40" />
              <mxPoint x="40" y="40" />
              <mxPoint x="40" y="240" />
            </Array>
            <mxPoint x="80" y="79.97000000000003" as="sourcePoint" />
            <mxPoint x="50" y="240" as="targetPoint" />
          </mxGeometry>
        </mxCell>
        <mxCell id="-ffWcNgMU6-ht5LjwaNp-4" value="lists" style="text;html=1;align=center;verticalAlign=middle;whiteSpace=wrap;rounded=0;fontSize=10;" vertex="1" parent="-ffWcNgMU6-ht5LjwaNp-1">
          <mxGeometry x="60" y="119.97" width="40" height="20" as="geometry" />
        </mxCell>
        <mxCell id="-ffWcNgMU6-ht5LjwaNp-5" value="6" style="text;html=1;align=center;verticalAlign=middle;whiteSpace=wrap;rounded=0;fillColor=#dae8fc;strokeColor=#6c8ebf;fontSize=14;fontColor=#333333;" vertex="1" parent="-ffWcNgMU6-ht5LjwaNp-1">
          <mxGeometry x="60" y="99.97" width="40" height="20" as="geometry" />
        </mxCell>
        <mxCell id="-ffWcNgMU6-ht5LjwaNp-6" value="root" style="text;html=1;align=center;verticalAlign=middle;whiteSpace=wrap;rounded=0;fontSize=10;" vertex="1" parent="-ffWcNgMU6-ht5LjwaNp-1">
          <mxGeometry x="60" y="260" width="220" height="20" as="geometry" />
        </mxCell>
        <mxCell id="-ffWcNgMU6-ht5LjwaNp-7" value="0" style="text;html=1;align=center;verticalAlign=middle;whiteSpace=wrap;rounded=0;fontSize=10;" vertex="1" parent="-ffWcNgMU6-ht5LjwaNp-1">
          <mxGeometry x="40" y="59.97" width="20" height="20" as="geometry" />
        </mxCell>
        <mxCell id="-ffWcNgMU6-ht5LjwaNp-8" value="1" style="text;html=1;align=center;verticalAlign=middle;whiteSpace=wrap;rounded=0;fontSize=10;" vertex="1" parent="-ffWcNgMU6-ht5LjwaNp-1">
          <mxGeometry x="40" y="79.97" width="20" height="20" as="geometry" />
        </mxCell>
        <mxCell id="-ffWcNgMU6-ht5LjwaNp-9" value="2" style="text;html=1;align=center;verticalAlign=middle;whiteSpace=wrap;rounded=0;fontSize=10;" vertex="1" parent="-ffWcNgMU6-ht5LjwaNp-1">
          <mxGeometry x="40" y="99.97" width="20" height="20" as="geometry" />
        </mxCell>
        <mxCell id="-ffWcNgMU6-ht5LjwaNp-10" value="1" style="text;html=1;align=center;verticalAlign=middle;whiteSpace=wrap;rounded=0;fillColor=#f5f5f5;strokeColor=#666666;fontSize=14;fontColor=#333333;" vertex="1" parent="-ffWcNgMU6-ht5LjwaNp-1">
          <mxGeometry x="60" y="159.97" width="40" height="40" as="geometry" />
        </mxCell>
        <mxCell id="-ffWcNgMU6-ht5LjwaNp-11" value="1" style="text;html=1;align=center;verticalAlign=middle;whiteSpace=wrap;rounded=0;fillColor=#f5f5f5;strokeColor=#666666;fontSize=14;fontColor=#333333;" vertex="1" parent="-ffWcNgMU6-ht5LjwaNp-1">
          <mxGeometry x="120" y="159.97" width="40" height="40" as="geometry" />
        </mxCell>
        <mxCell id="-ffWcNgMU6-ht5LjwaNp-12" style="edgeStyle=orthogonalEdgeStyle;rounded=0;orthogonalLoop=1;jettySize=auto;html=1;exitX=1;exitY=0.5;exitDx=0;exitDy=0;fillColor=#f5f5f5;strokeColor=#666666;strokeWidth=2;entryX=0;entryY=0.5;entryDx=0;entryDy=0;" edge="1" parent="-ffWcNgMU6-ht5LjwaNp-1" source="-ffWcNgMU6-ht5LjwaNp-10" target="-ffWcNgMU6-ht5LjwaNp-11">
          <mxGeometry relative="1" as="geometry">
            <mxPoint x="110" y="119.97" as="sourcePoint" />
            <mxPoint x="100" y="149.97" as="targetPoint" />
          </mxGeometry>
        </mxCell>
        <mxCell id="-ffWcNgMU6-ht5LjwaNp-13" value="2" style="text;html=1;align=center;verticalAlign=middle;whiteSpace=wrap;rounded=0;fillColor=#f5f5f5;strokeColor=#666666;fontSize=14;fontColor=#333333;" vertex="1" parent="-ffWcNgMU6-ht5LjwaNp-1">
          <mxGeometry x="180" y="159.97" width="40" height="40" as="geometry" />
        </mxCell>
        <mxCell id="-ffWcNgMU6-ht5LjwaNp-14" style="edgeStyle=orthogonalEdgeStyle;rounded=0;orthogonalLoop=1;jettySize=auto;html=1;fillColor=#f5f5f5;strokeColor=#666666;strokeWidth=2;entryX=0;entryY=0.5;entryDx=0;entryDy=0;exitX=1;exitY=0.5;exitDx=0;exitDy=0;" edge="1" parent="-ffWcNgMU6-ht5LjwaNp-1" source="-ffWcNgMU6-ht5LjwaNp-11" target="-ffWcNgMU6-ht5LjwaNp-13">
          <mxGeometry relative="1" as="geometry">
            <mxPoint x="170" y="199.97" as="sourcePoint" />
            <mxPoint x="130" y="189.97" as="targetPoint" />
          </mxGeometry>
        </mxCell>
        <mxCell id="-ffWcNgMU6-ht5LjwaNp-15" value="3" style="text;html=1;align=center;verticalAlign=middle;whiteSpace=wrap;rounded=0;fillColor=#f5f5f5;strokeColor=#666666;fontSize=14;fontColor=#333333;" vertex="1" parent="-ffWcNgMU6-ht5LjwaNp-1">
          <mxGeometry x="240" y="159.97" width="40" height="40" as="geometry" />
        </mxCell>
        <mxCell id="-ffWcNgMU6-ht5LjwaNp-16" style="edgeStyle=orthogonalEdgeStyle;rounded=0;orthogonalLoop=1;jettySize=auto;html=1;fillColor=#f5f5f5;strokeColor=#666666;strokeWidth=2;entryX=0;entryY=0.5;entryDx=0;entryDy=0;exitX=1;exitY=0.5;exitDx=0;exitDy=0;" edge="1" parent="-ffWcNgMU6-ht5LjwaNp-1" source="-ffWcNgMU6-ht5LjwaNp-13" target="-ffWcNgMU6-ht5LjwaNp-15">
          <mxGeometry relative="1" as="geometry">
            <mxPoint x="230" y="189.97" as="sourcePoint" />
            <mxPoint x="190" y="189.97" as="targetPoint" />
          </mxGeometry>
        </mxCell>
        <mxCell id="-ffWcNgMU6-ht5LjwaNp-17" value="4" style="text;html=1;align=center;verticalAlign=middle;whiteSpace=wrap;rounded=0;fillColor=#f5f5f5;strokeColor=#666666;fontSize=14;fontColor=#333333;" vertex="1" parent="-ffWcNgMU6-ht5LjwaNp-1">
          <mxGeometry x="240" y="219.97" width="40" height="40" as="geometry" />
        </mxCell>
        <mxCell id="-ffWcNgMU6-ht5LjwaNp-18" style="edgeStyle=orthogonalEdgeStyle;rounded=0;orthogonalLoop=1;jettySize=auto;html=1;fillColor=#f5f5f5;strokeColor=#666666;strokeWidth=2;entryX=0.5;entryY=0;entryDx=0;entryDy=0;exitX=0.5;exitY=1;exitDx=0;exitDy=0;" edge="1" parent="-ffWcNgMU6-ht5LjwaNp-1" source="-ffWcNgMU6-ht5LjwaNp-15" target="-ffWcNgMU6-ht5LjwaNp-17">
          <mxGeometry relative="1" as="geometry">
            <mxPoint x="240" y="210" as="sourcePoint" />
            <mxPoint x="230" y="140" as="targetPoint" />
          </mxGeometry>
        </mxCell>
        <mxCell id="-ffWcNgMU6-ht5LjwaNp-19" value="5" style="text;html=1;align=center;verticalAlign=middle;whiteSpace=wrap;rounded=0;fillColor=#f5f5f5;strokeColor=#666666;fontSize=14;fontColor=#333333;" vertex="1" parent="-ffWcNgMU6-ht5LjwaNp-1">
          <mxGeometry x="120" y="219.97" width="40" height="40" as="geometry" />
        </mxCell>
        <mxCell id="-ffWcNgMU6-ht5LjwaNp-20" style="edgeStyle=orthogonalEdgeStyle;rounded=0;orthogonalLoop=1;jettySize=auto;html=1;fillColor=#f5f5f5;strokeColor=#666666;strokeWidth=2;exitX=0;exitY=0.5;exitDx=0;exitDy=0;entryX=1;entryY=0.5;entryDx=0;entryDy=0;" edge="1" parent="-ffWcNgMU6-ht5LjwaNp-1" source="-ffWcNgMU6-ht5LjwaNp-17" target="-ffWcNgMU6-ht5LjwaNp-21">
          <mxGeometry relative="1" as="geometry">
            <mxPoint x="270" y="210" as="sourcePoint" />
            <mxPoint x="230" y="240" as="targetPoint" />
          </mxGeometry>
        </mxCell>
        <mxCell id="-ffWcNgMU6-ht5LjwaNp-21" value="4" style="text;html=1;align=center;verticalAlign=middle;whiteSpace=wrap;rounded=0;fillColor=#f5f5f5;strokeColor=#666666;fontSize=14;fontColor=#333333;" vertex="1" parent="-ffWcNgMU6-ht5LjwaNp-1">
          <mxGeometry x="180" y="220" width="40" height="40" as="geometry" />
        </mxCell>
        <mxCell id="-ffWcNgMU6-ht5LjwaNp-22" style="edgeStyle=orthogonalEdgeStyle;rounded=0;orthogonalLoop=1;jettySize=auto;html=1;fillColor=#f5f5f5;strokeColor=#666666;strokeWidth=2;entryX=1;entryY=0.5;entryDx=0;entryDy=0;exitX=0;exitY=0.5;exitDx=0;exitDy=0;" edge="1" parent="-ffWcNgMU6-ht5LjwaNp-1" source="-ffWcNgMU6-ht5LjwaNp-21" target="-ffWcNgMU6-ht5LjwaNp-19">
          <mxGeometry relative="1" as="geometry">
            <mxPoint x="170" y="240" as="sourcePoint" />
            <mxPoint x="230" y="250" as="targetPoint" />
          </mxGeometry>
        </mxCell>
        <mxCell id="bZbiZtt5bFkba_RCO48a-0" value="6" style="text;html=1;align=center;verticalAlign=middle;whiteSpace=wrap;rounded=0;fillColor=#dae8fc;strokeColor=#6c8ebf;fontSize=14;fontColor=#333333;" vertex="1" parent="-ffWcNgMU6-ht5LjwaNp-1">
          <mxGeometry x="60" y="220" width="40" height="40" as="geometry" />
        </mxCell>
        <mxCell id="bZbiZtt5bFkba_RCO48a-1" style="edgeStyle=orthogonalEdgeStyle;rounded=0;orthogonalLoop=1;jettySize=auto;html=1;fillColor=#f5f5f5;strokeColor=#666666;strokeWidth=2;entryX=1;entryY=0.5;entryDx=0;entryDy=0;exitX=0;exitY=0.5;exitDx=0;exitDy=0;" edge="1" parent="-ffWcNgMU6-ht5LjwaNp-1" source="-ffWcNgMU6-ht5LjwaNp-19" target="bZbiZtt5bFkba_RCO48a-0">
          <mxGeometry relative="1" as="geometry">
            <mxPoint x="110" y="250" as="sourcePoint" />
            <mxPoint x="170" y="250" as="targetPoint" />
          </mxGeometry>
        </mxCell>
      </root>
    </mxGraphModel>
  </diagram>
</mxfile>
